<?xml version="1.0" encoding="utf-8"?>
<!-- Generator: Adobe Illustrator 23.0.1, SVG Export Plug-In . SVG Version: 6.00 Build 0)  -->
<!DOCTYPE svg PUBLIC "-//W3C//DTD SVG 1.1//EN" "http://www.w3.org/Graphics/SVG/1.1/DTD/svg11.dtd" [
	<!ENTITY ns_extend "http://ns.adobe.com/Extensibility/1.0/">
	<!ENTITY ns_ai "http://ns.adobe.com/AdobeIllustrator/10.0/">
	<!ENTITY ns_graphs "http://ns.adobe.com/Graphs/1.0/">
	<!ENTITY ns_vars "http://ns.adobe.com/Variables/1.0/">
	<!ENTITY ns_imrep "http://ns.adobe.com/ImageReplacement/1.0/">
	<!ENTITY ns_sfw "http://ns.adobe.com/SaveForWeb/1.0/">
	<!ENTITY ns_custom "http://ns.adobe.com/GenericCustomNamespace/1.0/">
	<!ENTITY ns_adobe_xpath "http://ns.adobe.com/XPath/1.0/">
]>
<svg version="1.1" id="Livello_1" xmlns:x="&ns_extend;" xmlns:i="&ns_ai;" xmlns:graph="&ns_graphs;"
	 xmlns="http://www.w3.org/2000/svg" xmlns:xlink="http://www.w3.org/1999/xlink" x="0px" y="0px" viewBox="0 0 1500 1300"
	 enable-background="new 0 0 1500 1300" xml:space="preserve">
<metadata>
	<sfw  xmlns="&ns_sfw;">
		<slices></slices>
		<sliceSourceBounds bottomLeftOrigin="true" width="1500" height="1300"></sliceSourceBounds>
	</sfw>
</metadata>
<g>
	<path fill-rule="evenodd" clip-rule="evenodd" fill="#FBBC04" d="M924.088,355.003c66.14-113.208,26.869-257.89-87.701-323.278
		C721.769-33.57,575.256,5.137,509.116,118.345c-2.915,5.072-5.657,10.243-8.221,15.502L277.297,516.36
		c-4.947,7.604-9.525,15.442-13.717,23.487L31.385,940.539l414.925,232.57l231.02-397.31c5.034-7.55,9.615-15.393,13.716-23.487
		l223.598-382.56C917.887,364.961,921.129,360.076,924.088,355.003"/>
	<path fill-rule="evenodd" clip-rule="evenodd" fill="#34A853" d="M448.237,1171.889c-65.764,115.04-214.11,157.364-328.023,90.99
		C6.254,1196.456-34.191,1052.432,31.62,937.439s212.841-157.505,326.801-91.13c113.96,66.422,155.579,210.586,89.815,325.533"/>
	<path fill-rule="evenodd" clip-rule="evenodd" fill="#4285F4" d="M1343.617,430.726c-113.259-65.272-257.977-26.619-323.607,86.433
		L783.117,926.494c-65.267,112.821-26.717,257.189,86.104,322.456c0.204,0.118,0.407,0.235,0.611,0.352
		c113.281,65.296,258.039,26.617,323.654-86.48l236.845-409.288c65.257-112.856,26.671-257.246-86.185-322.503
		C1343.97,430.929,1343.793,430.827,1343.617,430.726"/>
</g>
</svg>
